<mxfile host="app.diagrams.net" agent="Mozilla/5.0 (Windows NT 10.0; Win64; x64) AppleWebKit/537.36 (KHTML, like Gecko) Chrome/128.0.0.0 Safari/537.36" version="24.7.14">
  <diagram name="Page-1" id="p24z95UTdmrrDNpsNTUv">
    <mxGraphModel dx="1050" dy="522" grid="1" gridSize="10" guides="1" tooltips="1" connect="1" arrows="1" fold="1" page="1" pageScale="1" pageWidth="827" pageHeight="1169" math="0" shadow="0">
      <root>
        <mxCell id="0" />
        <mxCell id="1" parent="0" />
        <mxCell id="W-_1bUfUhgrlVUPJeIlN-10" style="edgeStyle=orthogonalEdgeStyle;rounded=0;orthogonalLoop=1;jettySize=auto;html=1;" edge="1" parent="1" source="W-_1bUfUhgrlVUPJeIlN-1" target="W-_1bUfUhgrlVUPJeIlN-3">
          <mxGeometry relative="1" as="geometry" />
        </mxCell>
        <mxCell id="W-_1bUfUhgrlVUPJeIlN-1" value="columns {1,2,3,4,5]" style="whiteSpace=wrap;html=1;" vertex="1" parent="1">
          <mxGeometry x="30" y="240" width="120" height="80" as="geometry" />
        </mxCell>
        <mxCell id="W-_1bUfUhgrlVUPJeIlN-11" style="edgeStyle=orthogonalEdgeStyle;rounded=0;orthogonalLoop=1;jettySize=auto;html=1;" edge="1" parent="1" source="W-_1bUfUhgrlVUPJeIlN-2">
          <mxGeometry relative="1" as="geometry">
            <mxPoint x="560" y="130" as="targetPoint" />
          </mxGeometry>
        </mxCell>
        <mxCell id="W-_1bUfUhgrlVUPJeIlN-2" value="column [1,3]" style="whiteSpace=wrap;html=1;" vertex="1" parent="1">
          <mxGeometry x="320" y="100" width="120" height="60" as="geometry" />
        </mxCell>
        <mxCell id="W-_1bUfUhgrlVUPJeIlN-3" value="column [2,4]" style="whiteSpace=wrap;html=1;" vertex="1" parent="1">
          <mxGeometry x="320" y="250" width="120" height="60" as="geometry" />
        </mxCell>
        <mxCell id="W-_1bUfUhgrlVUPJeIlN-4" value="column [3,5]" style="whiteSpace=wrap;html=1;" vertex="1" parent="1">
          <mxGeometry x="320" y="380" width="120" height="60" as="geometry" />
        </mxCell>
        <mxCell id="W-_1bUfUhgrlVUPJeIlN-8" value="" style="endArrow=classic;html=1;rounded=0;entryX=0;entryY=0.5;entryDx=0;entryDy=0;" edge="1" parent="1" target="W-_1bUfUhgrlVUPJeIlN-2">
          <mxGeometry width="50" height="50" relative="1" as="geometry">
            <mxPoint x="150" y="240" as="sourcePoint" />
            <mxPoint x="200" y="190" as="targetPoint" />
          </mxGeometry>
        </mxCell>
        <mxCell id="W-_1bUfUhgrlVUPJeIlN-9" value="" style="endArrow=classic;html=1;rounded=0;entryX=0;entryY=0.5;entryDx=0;entryDy=0;" edge="1" parent="1" target="W-_1bUfUhgrlVUPJeIlN-4">
          <mxGeometry width="50" height="50" relative="1" as="geometry">
            <mxPoint x="150" y="320" as="sourcePoint" />
            <mxPoint x="200" y="270" as="targetPoint" />
          </mxGeometry>
        </mxCell>
        <mxCell id="W-_1bUfUhgrlVUPJeIlN-12" value="column [3]" style="whiteSpace=wrap;html=1;" vertex="1" parent="1">
          <mxGeometry x="620" y="70" width="90" height="50" as="geometry" />
        </mxCell>
        <mxCell id="W-_1bUfUhgrlVUPJeIlN-13" value="column [3]" style="whiteSpace=wrap;html=1;" vertex="1" parent="1">
          <mxGeometry x="550" y="170" width="80" height="40" as="geometry" />
        </mxCell>
        <mxCell id="W-_1bUfUhgrlVUPJeIlN-14" value="column [1]" style="whiteSpace=wrap;html=1;" vertex="1" parent="1">
          <mxGeometry x="700" y="170" width="80" height="40" as="geometry" />
        </mxCell>
        <mxCell id="W-_1bUfUhgrlVUPJeIlN-15" value="column [1]" style="whiteSpace=wrap;html=1;" vertex="1" parent="1">
          <mxGeometry x="650" y="250" width="75" height="40" as="geometry" />
        </mxCell>
        <mxCell id="W-_1bUfUhgrlVUPJeIlN-16" value="column [3]" style="whiteSpace=wrap;html=1;" vertex="1" parent="1">
          <mxGeometry x="760" y="250" width="67" height="40" as="geometry" />
        </mxCell>
        <mxCell id="W-_1bUfUhgrlVUPJeIlN-17" value="" style="endArrow=classic;html=1;rounded=0;entryX=0.5;entryY=0;entryDx=0;entryDy=0;exitX=0.5;exitY=1;exitDx=0;exitDy=0;" edge="1" parent="1" source="W-_1bUfUhgrlVUPJeIlN-12" target="W-_1bUfUhgrlVUPJeIlN-13">
          <mxGeometry width="50" height="50" relative="1" as="geometry">
            <mxPoint x="662.5" y="150" as="sourcePoint" />
            <mxPoint x="712.5" y="100" as="targetPoint" />
          </mxGeometry>
        </mxCell>
        <mxCell id="W-_1bUfUhgrlVUPJeIlN-18" value="" style="endArrow=classic;html=1;rounded=0;entryX=0.405;entryY=0.06;entryDx=0;entryDy=0;exitX=0.5;exitY=1;exitDx=0;exitDy=0;entryPerimeter=0;" edge="1" parent="1" source="W-_1bUfUhgrlVUPJeIlN-12" target="W-_1bUfUhgrlVUPJeIlN-14">
          <mxGeometry width="50" height="50" relative="1" as="geometry">
            <mxPoint x="662.5" y="150" as="sourcePoint" />
            <mxPoint x="712.5" y="100" as="targetPoint" />
          </mxGeometry>
        </mxCell>
        <mxCell id="W-_1bUfUhgrlVUPJeIlN-19" value="" style="endArrow=classic;html=1;rounded=0;entryX=0.412;entryY=-0.04;entryDx=0;entryDy=0;entryPerimeter=0;" edge="1" parent="1" target="W-_1bUfUhgrlVUPJeIlN-16">
          <mxGeometry width="50" height="50" relative="1" as="geometry">
            <mxPoint x="730" y="210" as="sourcePoint" />
            <mxPoint x="780" y="160" as="targetPoint" />
          </mxGeometry>
        </mxCell>
        <mxCell id="W-_1bUfUhgrlVUPJeIlN-20" value="" style="endArrow=classic;html=1;rounded=0;entryX=0.5;entryY=0;entryDx=0;entryDy=0;" edge="1" parent="1" target="W-_1bUfUhgrlVUPJeIlN-15">
          <mxGeometry width="50" height="50" relative="1" as="geometry">
            <mxPoint x="730" y="210" as="sourcePoint" />
            <mxPoint x="780" y="160" as="targetPoint" />
          </mxGeometry>
        </mxCell>
        <mxCell id="W-_1bUfUhgrlVUPJeIlN-22" style="edgeStyle=orthogonalEdgeStyle;rounded=0;orthogonalLoop=1;jettySize=auto;html=1;" edge="1" parent="1" source="W-_1bUfUhgrlVUPJeIlN-23" target="W-_1bUfUhgrlVUPJeIlN-26">
          <mxGeometry relative="1" as="geometry" />
        </mxCell>
        <mxCell id="W-_1bUfUhgrlVUPJeIlN-23" value="columns {1,2,3,4,5]" style="whiteSpace=wrap;html=1;" vertex="1" parent="1">
          <mxGeometry x="15" y="670" width="120" height="80" as="geometry" />
        </mxCell>
        <mxCell id="W-_1bUfUhgrlVUPJeIlN-24" style="edgeStyle=orthogonalEdgeStyle;rounded=0;orthogonalLoop=1;jettySize=auto;html=1;" edge="1" parent="1" source="W-_1bUfUhgrlVUPJeIlN-25">
          <mxGeometry relative="1" as="geometry">
            <mxPoint x="545" y="560" as="targetPoint" />
          </mxGeometry>
        </mxCell>
        <mxCell id="W-_1bUfUhgrlVUPJeIlN-25" value="&lt;font style=&quot;font-size: 14px;&quot;&gt;Sampling is done each time before a node is created&lt;/font&gt;" style="whiteSpace=wrap;html=1;" vertex="1" parent="1">
          <mxGeometry x="305" y="530" width="120" height="60" as="geometry" />
        </mxCell>
        <mxCell id="W-_1bUfUhgrlVUPJeIlN-26" value="&lt;span style=&quot;font-size: 14px;&quot;&gt;Sampling is done each time before a node is created&lt;/span&gt;" style="whiteSpace=wrap;html=1;" vertex="1" parent="1">
          <mxGeometry x="305" y="680" width="120" height="60" as="geometry" />
        </mxCell>
        <mxCell id="W-_1bUfUhgrlVUPJeIlN-27" value="&lt;span style=&quot;font-size: 14px;&quot;&gt;Sampling is done each time before a node is created&lt;/span&gt;" style="whiteSpace=wrap;html=1;" vertex="1" parent="1">
          <mxGeometry x="305" y="810" width="120" height="60" as="geometry" />
        </mxCell>
        <mxCell id="W-_1bUfUhgrlVUPJeIlN-28" value="" style="endArrow=classic;html=1;rounded=0;entryX=0;entryY=0.5;entryDx=0;entryDy=0;" edge="1" parent="1" target="W-_1bUfUhgrlVUPJeIlN-25">
          <mxGeometry width="50" height="50" relative="1" as="geometry">
            <mxPoint x="135" y="670" as="sourcePoint" />
            <mxPoint x="185" y="620" as="targetPoint" />
          </mxGeometry>
        </mxCell>
        <mxCell id="W-_1bUfUhgrlVUPJeIlN-29" value="" style="endArrow=classic;html=1;rounded=0;entryX=0;entryY=0.5;entryDx=0;entryDy=0;" edge="1" parent="1" target="W-_1bUfUhgrlVUPJeIlN-27">
          <mxGeometry width="50" height="50" relative="1" as="geometry">
            <mxPoint x="135" y="750" as="sourcePoint" />
            <mxPoint x="185" y="700" as="targetPoint" />
          </mxGeometry>
        </mxCell>
        <mxCell id="W-_1bUfUhgrlVUPJeIlN-30" value="column [3]" style="whiteSpace=wrap;html=1;" vertex="1" parent="1">
          <mxGeometry x="605" y="500" width="90" height="50" as="geometry" />
        </mxCell>
        <mxCell id="W-_1bUfUhgrlVUPJeIlN-31" value="column [2]" style="whiteSpace=wrap;html=1;" vertex="1" parent="1">
          <mxGeometry x="535" y="600" width="80" height="40" as="geometry" />
        </mxCell>
        <mxCell id="W-_1bUfUhgrlVUPJeIlN-32" value="column [1]" style="whiteSpace=wrap;html=1;" vertex="1" parent="1">
          <mxGeometry x="685" y="600" width="80" height="40" as="geometry" />
        </mxCell>
        <mxCell id="W-_1bUfUhgrlVUPJeIlN-33" value="column [4]" style="whiteSpace=wrap;html=1;" vertex="1" parent="1">
          <mxGeometry x="635" y="680" width="75" height="40" as="geometry" />
        </mxCell>
        <mxCell id="W-_1bUfUhgrlVUPJeIlN-34" value="column [5]" style="whiteSpace=wrap;html=1;" vertex="1" parent="1">
          <mxGeometry x="745" y="680" width="67" height="40" as="geometry" />
        </mxCell>
        <mxCell id="W-_1bUfUhgrlVUPJeIlN-35" value="" style="endArrow=classic;html=1;rounded=0;entryX=0.5;entryY=0;entryDx=0;entryDy=0;exitX=0.5;exitY=1;exitDx=0;exitDy=0;" edge="1" parent="1" source="W-_1bUfUhgrlVUPJeIlN-30" target="W-_1bUfUhgrlVUPJeIlN-31">
          <mxGeometry width="50" height="50" relative="1" as="geometry">
            <mxPoint x="647.5" y="580" as="sourcePoint" />
            <mxPoint x="697.5" y="530" as="targetPoint" />
          </mxGeometry>
        </mxCell>
        <mxCell id="W-_1bUfUhgrlVUPJeIlN-36" value="" style="endArrow=classic;html=1;rounded=0;entryX=0.405;entryY=0.06;entryDx=0;entryDy=0;exitX=0.5;exitY=1;exitDx=0;exitDy=0;entryPerimeter=0;" edge="1" parent="1" source="W-_1bUfUhgrlVUPJeIlN-30" target="W-_1bUfUhgrlVUPJeIlN-32">
          <mxGeometry width="50" height="50" relative="1" as="geometry">
            <mxPoint x="647.5" y="580" as="sourcePoint" />
            <mxPoint x="697.5" y="530" as="targetPoint" />
          </mxGeometry>
        </mxCell>
        <mxCell id="W-_1bUfUhgrlVUPJeIlN-37" value="" style="endArrow=classic;html=1;rounded=0;entryX=0.412;entryY=-0.04;entryDx=0;entryDy=0;entryPerimeter=0;" edge="1" parent="1" target="W-_1bUfUhgrlVUPJeIlN-34">
          <mxGeometry width="50" height="50" relative="1" as="geometry">
            <mxPoint x="715" y="640" as="sourcePoint" />
            <mxPoint x="765" y="590" as="targetPoint" />
          </mxGeometry>
        </mxCell>
        <mxCell id="W-_1bUfUhgrlVUPJeIlN-38" value="" style="endArrow=classic;html=1;rounded=0;entryX=0.5;entryY=0;entryDx=0;entryDy=0;" edge="1" parent="1" target="W-_1bUfUhgrlVUPJeIlN-33">
          <mxGeometry width="50" height="50" relative="1" as="geometry">
            <mxPoint x="715" y="640" as="sourcePoint" />
            <mxPoint x="765" y="590" as="targetPoint" />
          </mxGeometry>
        </mxCell>
      </root>
    </mxGraphModel>
  </diagram>
</mxfile>
